<mxfile host="app.diagrams.net" agent="Mozilla/5.0 (Windows NT 10.0; Win64; x64) AppleWebKit/537.36 (KHTML, like Gecko) Chrome/127.0.0.0 Safari/537.36" version="24.7.7">
  <diagram name="Page-1" id="Q5Ghgtz6D3uQfZf_NhRo">
    <mxGraphModel dx="2805" dy="605" grid="1" gridSize="10" guides="1" tooltips="1" connect="1" arrows="1" fold="1" page="1" pageScale="1" pageWidth="850" pageHeight="1100" math="0" shadow="0">
      <root>
        <mxCell id="0" />
        <mxCell id="1" parent="0" />
        <mxCell id="B418huLh6HLFWsU2E1qm-10" style="edgeStyle=orthogonalEdgeStyle;rounded=0;orthogonalLoop=1;jettySize=auto;html=1;entryX=0.5;entryY=0;entryDx=0;entryDy=0;" edge="1" parent="1" source="B418huLh6HLFWsU2E1qm-2" target="B418huLh6HLFWsU2E1qm-3">
          <mxGeometry relative="1" as="geometry" />
        </mxCell>
        <mxCell id="B418huLh6HLFWsU2E1qm-18" style="edgeStyle=orthogonalEdgeStyle;rounded=0;orthogonalLoop=1;jettySize=auto;html=1;" edge="1" parent="1" source="B418huLh6HLFWsU2E1qm-2">
          <mxGeometry relative="1" as="geometry">
            <mxPoint x="-1130" y="261" as="targetPoint" />
          </mxGeometry>
        </mxCell>
        <mxCell id="B418huLh6HLFWsU2E1qm-2" value="Doctor" style="rounded=0;whiteSpace=wrap;html=1;" vertex="1" parent="1">
          <mxGeometry x="-1520" y="231" width="120" height="60" as="geometry" />
        </mxCell>
        <mxCell id="B418huLh6HLFWsU2E1qm-11" style="edgeStyle=orthogonalEdgeStyle;rounded=0;orthogonalLoop=1;jettySize=auto;html=1;entryX=0.5;entryY=0;entryDx=0;entryDy=0;" edge="1" parent="1" source="B418huLh6HLFWsU2E1qm-3" target="B418huLh6HLFWsU2E1qm-4">
          <mxGeometry relative="1" as="geometry" />
        </mxCell>
        <mxCell id="B418huLh6HLFWsU2E1qm-15" value="" style="edgeStyle=orthogonalEdgeStyle;rounded=0;orthogonalLoop=1;jettySize=auto;html=1;" edge="1" parent="1" source="B418huLh6HLFWsU2E1qm-3" target="B418huLh6HLFWsU2E1qm-5">
          <mxGeometry relative="1" as="geometry" />
        </mxCell>
        <mxCell id="B418huLh6HLFWsU2E1qm-3" value="appointment&amp;nbsp;" style="rounded=0;whiteSpace=wrap;html=1;" vertex="1" parent="1">
          <mxGeometry x="-1520" y="331" width="120" height="60" as="geometry" />
        </mxCell>
        <mxCell id="B418huLh6HLFWsU2E1qm-4" value="Patients&amp;nbsp;" style="rounded=0;whiteSpace=wrap;html=1;" vertex="1" parent="1">
          <mxGeometry x="-1520" y="431" width="120" height="60" as="geometry" />
        </mxCell>
        <mxCell id="B418huLh6HLFWsU2E1qm-5" value="Payment Platefrom" style="rounded=0;whiteSpace=wrap;html=1;" vertex="1" parent="1">
          <mxGeometry x="-1370" y="331" width="120" height="60" as="geometry" />
        </mxCell>
        <mxCell id="B418huLh6HLFWsU2E1qm-6" value="Prescription&amp;nbsp;" style="rounded=0;whiteSpace=wrap;html=1;" vertex="1" parent="1">
          <mxGeometry x="-1120" y="231" width="120" height="60" as="geometry" />
        </mxCell>
        <mxCell id="B418huLh6HLFWsU2E1qm-51" value="" style="edgeStyle=orthogonalEdgeStyle;rounded=0;orthogonalLoop=1;jettySize=auto;html=1;" edge="1" parent="1" source="B418huLh6HLFWsU2E1qm-8" target="B418huLh6HLFWsU2E1qm-21">
          <mxGeometry relative="1" as="geometry" />
        </mxCell>
        <mxCell id="B418huLh6HLFWsU2E1qm-8" value="Telemedicine Service&amp;nbsp;" style="ellipse;whiteSpace=wrap;html=1;" vertex="1" parent="1">
          <mxGeometry x="-1335" y="130" width="120" height="80" as="geometry" />
        </mxCell>
        <mxCell id="B418huLh6HLFWsU2E1qm-13" value="" style="endArrow=none;html=1;rounded=0;" edge="1" parent="1">
          <mxGeometry width="50" height="50" relative="1" as="geometry">
            <mxPoint x="-1460" y="411" as="sourcePoint" />
            <mxPoint x="-1060" y="411" as="targetPoint" />
          </mxGeometry>
        </mxCell>
        <mxCell id="B418huLh6HLFWsU2E1qm-14" value="" style="endArrow=none;html=1;rounded=0;entryX=0.5;entryY=1;entryDx=0;entryDy=0;" edge="1" parent="1" target="B418huLh6HLFWsU2E1qm-6">
          <mxGeometry width="50" height="50" relative="1" as="geometry">
            <mxPoint x="-1060" y="411" as="sourcePoint" />
            <mxPoint x="-1040" y="291" as="targetPoint" />
          </mxGeometry>
        </mxCell>
        <mxCell id="B418huLh6HLFWsU2E1qm-21" value="&lt;b&gt;&lt;font style=&quot;font-size: 16px;&quot;&gt;USECASE DIAGRAM OF PATIENTS&amp;nbsp;&lt;/font&gt;&lt;/b&gt;" style="rounded=1;whiteSpace=wrap;html=1;" vertex="1" parent="1">
          <mxGeometry x="-1478" y="41" width="470" height="60" as="geometry" />
        </mxCell>
        <mxCell id="B418huLh6HLFWsU2E1qm-35" style="edgeStyle=orthogonalEdgeStyle;rounded=0;orthogonalLoop=1;jettySize=auto;html=1;entryX=0.5;entryY=0;entryDx=0;entryDy=0;" edge="1" parent="1" source="B418huLh6HLFWsU2E1qm-37" target="B418huLh6HLFWsU2E1qm-40">
          <mxGeometry relative="1" as="geometry" />
        </mxCell>
        <mxCell id="B418huLh6HLFWsU2E1qm-36" style="edgeStyle=orthogonalEdgeStyle;rounded=0;orthogonalLoop=1;jettySize=auto;html=1;" edge="1" parent="1" source="B418huLh6HLFWsU2E1qm-37">
          <mxGeometry relative="1" as="geometry">
            <mxPoint x="-1133" y="817" as="targetPoint" />
          </mxGeometry>
        </mxCell>
        <mxCell id="B418huLh6HLFWsU2E1qm-37" value="Doctor" style="rounded=0;whiteSpace=wrap;html=1;" vertex="1" parent="1">
          <mxGeometry x="-1523" y="787" width="120" height="60" as="geometry" />
        </mxCell>
        <mxCell id="B418huLh6HLFWsU2E1qm-38" style="edgeStyle=orthogonalEdgeStyle;rounded=0;orthogonalLoop=1;jettySize=auto;html=1;entryX=0.5;entryY=0;entryDx=0;entryDy=0;" edge="1" parent="1" source="B418huLh6HLFWsU2E1qm-40" target="B418huLh6HLFWsU2E1qm-41">
          <mxGeometry relative="1" as="geometry" />
        </mxCell>
        <mxCell id="B418huLh6HLFWsU2E1qm-39" value="" style="edgeStyle=orthogonalEdgeStyle;rounded=0;orthogonalLoop=1;jettySize=auto;html=1;" edge="1" parent="1" source="B418huLh6HLFWsU2E1qm-40" target="B418huLh6HLFWsU2E1qm-42">
          <mxGeometry relative="1" as="geometry" />
        </mxCell>
        <mxCell id="B418huLh6HLFWsU2E1qm-40" value="appointment&amp;nbsp;" style="rounded=0;whiteSpace=wrap;html=1;" vertex="1" parent="1">
          <mxGeometry x="-1523" y="887" width="120" height="60" as="geometry" />
        </mxCell>
        <mxCell id="B418huLh6HLFWsU2E1qm-41" value="Patients&amp;nbsp;" style="rounded=0;whiteSpace=wrap;html=1;" vertex="1" parent="1">
          <mxGeometry x="-1523" y="987" width="120" height="60" as="geometry" />
        </mxCell>
        <mxCell id="B418huLh6HLFWsU2E1qm-42" value="Payment Platefrom" style="rounded=0;whiteSpace=wrap;html=1;" vertex="1" parent="1">
          <mxGeometry x="-1373" y="887" width="120" height="60" as="geometry" />
        </mxCell>
        <mxCell id="B418huLh6HLFWsU2E1qm-43" value="Prescription&amp;nbsp;" style="rounded=0;whiteSpace=wrap;html=1;" vertex="1" parent="1">
          <mxGeometry x="-1123" y="787" width="120" height="60" as="geometry" />
        </mxCell>
        <mxCell id="B418huLh6HLFWsU2E1qm-44" value="Telemedicine Service&amp;nbsp;" style="ellipse;whiteSpace=wrap;html=1;" vertex="1" parent="1">
          <mxGeometry x="-1323" y="717" width="120" height="80" as="geometry" />
        </mxCell>
        <mxCell id="B418huLh6HLFWsU2E1qm-45" value="" style="endArrow=none;html=1;rounded=0;" edge="1" parent="1">
          <mxGeometry width="50" height="50" relative="1" as="geometry">
            <mxPoint x="-1463" y="967" as="sourcePoint" />
            <mxPoint x="-1063" y="967" as="targetPoint" />
          </mxGeometry>
        </mxCell>
        <mxCell id="B418huLh6HLFWsU2E1qm-46" value="" style="endArrow=none;html=1;rounded=0;entryX=0.5;entryY=1;entryDx=0;entryDy=0;" edge="1" parent="1" target="B418huLh6HLFWsU2E1qm-43">
          <mxGeometry width="50" height="50" relative="1" as="geometry">
            <mxPoint x="-1063" y="967" as="sourcePoint" />
            <mxPoint x="-1043" y="847" as="targetPoint" />
          </mxGeometry>
        </mxCell>
        <mxCell id="B418huLh6HLFWsU2E1qm-47" value="&lt;b&gt;&lt;font style=&quot;font-size: 16px;&quot;&gt;USECASE DIAGRAM OF DOCTOR&amp;nbsp;&lt;/font&gt;&lt;/b&gt;" style="rounded=1;whiteSpace=wrap;html=1;" vertex="1" parent="1">
          <mxGeometry x="-1475" y="597" width="470" height="60" as="geometry" />
        </mxCell>
        <mxCell id="B418huLh6HLFWsU2E1qm-52" value="&lt;b&gt;&lt;font style=&quot;font-size: 16px;&quot;&gt;ACTIVITY DIAGRAM OF PATIENTS&amp;nbsp;&lt;/font&gt;&lt;/b&gt;" style="rounded=1;whiteSpace=wrap;html=1;" vertex="1" parent="1">
          <mxGeometry x="-1490" y="1120" width="470" height="60" as="geometry" />
        </mxCell>
        <mxCell id="B418huLh6HLFWsU2E1qm-72" value="" style="edgeStyle=orthogonalEdgeStyle;rounded=0;orthogonalLoop=1;jettySize=auto;html=1;" edge="1" parent="1" source="B418huLh6HLFWsU2E1qm-53" target="B418huLh6HLFWsU2E1qm-65">
          <mxGeometry relative="1" as="geometry" />
        </mxCell>
        <mxCell id="B418huLh6HLFWsU2E1qm-53" value="STARTS&amp;nbsp;" style="rounded=0;whiteSpace=wrap;html=1;" vertex="1" parent="1">
          <mxGeometry x="-1325" y="1280" width="120" height="80" as="geometry" />
        </mxCell>
        <mxCell id="B418huLh6HLFWsU2E1qm-73" value="" style="edgeStyle=orthogonalEdgeStyle;rounded=0;orthogonalLoop=1;jettySize=auto;html=1;" edge="1" parent="1" source="B418huLh6HLFWsU2E1qm-65" target="B418huLh6HLFWsU2E1qm-66">
          <mxGeometry relative="1" as="geometry" />
        </mxCell>
        <mxCell id="B418huLh6HLFWsU2E1qm-65" value="Register&amp;nbsp;" style="rounded=0;whiteSpace=wrap;html=1;" vertex="1" parent="1">
          <mxGeometry x="-1325" y="1400" width="120" height="80" as="geometry" />
        </mxCell>
        <mxCell id="B418huLh6HLFWsU2E1qm-74" value="" style="edgeStyle=orthogonalEdgeStyle;rounded=0;orthogonalLoop=1;jettySize=auto;html=1;" edge="1" parent="1" source="B418huLh6HLFWsU2E1qm-66" target="B418huLh6HLFWsU2E1qm-67">
          <mxGeometry relative="1" as="geometry" />
        </mxCell>
        <mxCell id="B418huLh6HLFWsU2E1qm-66" value="Book Appointment&amp;nbsp;" style="rounded=0;whiteSpace=wrap;html=1;" vertex="1" parent="1">
          <mxGeometry x="-1325" y="1520" width="120" height="80" as="geometry" />
        </mxCell>
        <mxCell id="B418huLh6HLFWsU2E1qm-75" value="" style="edgeStyle=orthogonalEdgeStyle;rounded=0;orthogonalLoop=1;jettySize=auto;html=1;" edge="1" parent="1" source="B418huLh6HLFWsU2E1qm-67" target="B418huLh6HLFWsU2E1qm-68">
          <mxGeometry relative="1" as="geometry" />
        </mxCell>
        <mxCell id="B418huLh6HLFWsU2E1qm-67" value="Video Consultation&amp;nbsp;" style="rounded=0;whiteSpace=wrap;html=1;" vertex="1" parent="1">
          <mxGeometry x="-1325" y="1638" width="120" height="82" as="geometry" />
        </mxCell>
        <mxCell id="B418huLh6HLFWsU2E1qm-76" value="" style="edgeStyle=orthogonalEdgeStyle;rounded=0;orthogonalLoop=1;jettySize=auto;html=1;" edge="1" parent="1" source="B418huLh6HLFWsU2E1qm-68" target="B418huLh6HLFWsU2E1qm-70">
          <mxGeometry relative="1" as="geometry" />
        </mxCell>
        <mxCell id="B418huLh6HLFWsU2E1qm-68" value="Obtain Prescription&amp;nbsp;" style="rounded=0;whiteSpace=wrap;html=1;" vertex="1" parent="1">
          <mxGeometry x="-1325" y="1760" width="120" height="80" as="geometry" />
        </mxCell>
        <mxCell id="B418huLh6HLFWsU2E1qm-70" value="END" style="rounded=0;whiteSpace=wrap;html=1;" vertex="1" parent="1">
          <mxGeometry x="-1325" y="1880" width="120" height="80" as="geometry" />
        </mxCell>
      </root>
    </mxGraphModel>
  </diagram>
</mxfile>
